<svg xmlns="http://www.w3.org/2000/svg" viewBox="0 0 200 200">
  <defs>
    <linearGradient id="manusaG" x1="0" y1="0" x2="0" y2="1"><stop offset="0%" stop-color="#F48FB1"/><stop offset="100%" stop-color="#EC407A"/></linearGradient>
    <linearGradient id="manusaG2" x1="0" y1="0" x2="0" y2="1"><stop offset="0%" stop-color="#81D4FA"/><stop offset="100%" stop-color="#29B6F6"/></linearGradient>
  </defs>
  <path d="M70 40 L70 88 C70 104 76 116 88 116 C100 116 106 104 106 88 L106 40 C106 32 102 24 88 24 C74 24 70 32 70 40 Z" fill="url(#manusaG)" stroke="#C2185B" stroke-width="5" stroke-linejoin="round"/>
  <path d="M106 66 C114 62 126 66 128 76 C130 86 122 96 112 96 C108 96 106 92 106 88 Z" fill="url(#manusaG)" stroke="#C2185B" stroke-width="5" stroke-linejoin="round"/>
  <rect x="66" y="112" width="46" height="22" rx="11" fill="#FCE4EC" stroke="#C2185B" stroke-width="4.5"/>
  <path d="M70 123 h38" stroke="#F48FB1" stroke-width="4" stroke-linecap="round"/>
  <path d="M88 60 c-7 -8 -1 -20 0 -20 c6 4 6 12 0 20" fill="#FFFFFF" opacity="0.9"/>
  <circle cx="88" cy="90" r="4" fill="#FFFFFF" opacity="0.9"/>
  <path d="M94 40 L94 88 C94 104 88 116 76 116 C64 116 58 104 58 88 L58 40 C58 32 62 24 76 24 C90 24 94 32 94 40 Z" fill="url(#manusaG2)" stroke="#0277BD" stroke-width="5" stroke-linejoin="round"/>
  <path d="M58 66 C50 62 38 66 36 76 C34 86 42 96 52 96 C56 96 58 92 58 88 Z" fill="url(#manusaG2)" stroke="#0277BD" stroke-width="5" stroke-linejoin="round"/>
  <rect x="52" y="112" width="46" height="22" rx="11" fill="#E1F5FE" stroke="#0277BD" stroke-width="4.5"/>
  <path d="M56 123 h38" stroke="#81D4FA" stroke-width="4" stroke-linecap="round"/>
  <path d="M76 60 c-7 -8 -1 -20 0 -20 c6 4 6 12 0 20" fill="#FFFFFF" opacity="0.9"/>
  <circle cx="76" cy="90" r="4" fill="#FFFFFF" opacity="0.9"/>
  <path d="M90 134 C94 148 92 156 84 160 C76 156 74 148 78 134" fill="none" stroke="#C2185B" stroke-width="4.5" stroke-linecap="round"/>
  <g fill="#FFFFFF" stroke="#90CAF9" stroke-width="1.5">
    <circle cx="40" cy="44" r="3.2"/><circle cx="160" cy="38" r="2.8"/><circle cx="166" cy="122" r="2.4"/>
  </g>
</svg>
